<svg width="201" height="43" fill="none" xmlns="http://www.w3.org/2000/svg"><path d="M.236 42.297c9.981-3.187 24.452-10.611 34.516-17.243.845-.553 1.503-1.07 1.503-1.97 0-1.568-3.007-3.667-4.466-4.505-7.92 7.855-23.68 19.627-31.553 23.718Zm9.258-6.672c6.156-4.061 15.1-11.7 18.125-15.857.714-.977 1.24-1.545 1.24-2.567 0-1.678-2.049-2.909-3.524-3.764-3.536 7.95-11.477 17.849-15.841 22.188Zm4.708-6.219c4.259-5.23 7.61-11.377 7.61-15.79 0-2.306-1.732-3.917-3.99-5.14.043 4.796-1.698 16.042-3.62 20.93Zm.901-5.045c.796-5.018.327-11.079-.689-14.88-.552-2.07-2.507-4.408-4.317-5.136 2.371 6.422 4.408 15.569 5.006 20.016ZM13.35 17.32C11.485 12.51 6.837 2.485 0 0c4.452 4.689 11.053 13.988 13.35 17.32Z" fill="#1E88E5"/><path d="M189.439 28.774h-3.698V8.363h3.698V20.87l6.344-7.07h4.532l-6.091 6.308 6.2 8.665h-4.423l-4.387-5.982-2.175 2.248v3.734ZM176.65 29.137c-1.402 0-2.671-.278-3.807-.834a6.7 6.7 0 0 1-2.719-2.538c-.677-1.136-1.015-2.514-1.015-4.133.048-1.62.399-3.01 1.051-4.17.677-1.16 1.571-2.054 2.683-2.682 1.136-.629 2.429-.943 3.879-.943 1.475 0 2.732.29 3.771.87 1.063.556 1.885 1.293 2.465 2.212.58.894.907 1.825.979 2.791h-3.408c-.362-1.788-1.595-2.682-3.698-2.682-1.305 0-2.32.398-3.045 1.196-.701.798-1.052 1.837-1.052 3.118 0 1.402.339 2.526 1.015 3.372.701.821 1.729 1.232 3.082 1.232.919 0 1.716-.241 2.393-.725.701-.483 1.136-1.196 1.305-2.139h3.408c-.072 1.04-.411 2.018-1.015 2.937-.58.918-1.402 1.668-2.465 2.248-1.04.58-2.309.87-3.807.87ZM159.062 29.137c-2.055 0-3.517-.701-4.387-2.103-.87-1.402-1.305-3.239-1.305-5.51 0-2.297.435-4.146 1.305-5.548.894-1.426 2.356-2.139 4.387-2.139 1.16 0 2.078.206 2.755.617.677.386 1.184.821 1.523 1.305.338.483.544.846.616 1.087h.073v-2.973h3.806v14.901h-3.19l-.616-2.429h-.073c-.072.218-.29.556-.653 1.015-.338.435-.858.846-1.559 1.233-.676.363-1.571.544-2.682.544Zm1.522-3.118c1.354 0 2.26-.423 2.719-1.27.484-.87.726-1.933.726-3.19 0-1.329-.242-2.404-.726-3.226-.483-.822-1.389-1.233-2.719-1.233-.942 0-1.68.205-2.211.616-.508.411-.87.955-1.088 1.632-.193.652-.29 1.39-.29 2.212 0 .821.097 1.57.29 2.247.218.677.58 1.22 1.088 1.632.531.387 1.269.58 2.211.58ZM148.704 28.774c-1.184 0-2.079-.29-2.683-.87-.58-.58-.87-1.523-.87-2.828v-8.592h-2.248v-2.61c.701 0 1.245-.073 1.632-.218.386-.145.664-.484.833-1.015.17-.532.254-1.39.254-2.575h2.973v3.807h3.408v2.61h-3.408v9.39h3.481v2.901h-3.372ZM133.271 29.173c-1.112 0-2.212-.133-3.299-.399a9.724 9.724 0 0 1-2.901-1.233 6.139 6.139 0 0 1-2.066-2.175c-.508-.918-.774-2.018-.798-3.3h3.734c0 .122.049.388.145.799.097.386.314.81.653 1.269.362.459.918.857 1.668 1.196.773.338 1.812.507 3.117.507 1.427 0 2.478-.265 3.155-.797.701-.532 1.051-1.1 1.051-1.704 0-.677-.242-1.209-.725-1.595-.459-.411-1.088-.738-1.885-.98a25.897 25.897 0 0 0-2.574-.724 67.962 67.962 0 0 1-2.792-.726 12.088 12.088 0 0 1-2.538-1.123 5.412 5.412 0 0 1-1.776-1.85c-.435-.749-.629-1.703-.58-2.864.12-1.716.942-3.057 2.465-4.024 1.523-.967 3.541-1.45 6.054-1.45 1.451 0 2.792.266 4.025.798 1.257.507 2.26 1.28 3.009 2.32.773 1.015 1.16 2.32 1.16 3.915h-3.589c0-.749-.169-1.353-.508-1.812a3.162 3.162 0 0 0-1.305-1.088 4.752 4.752 0 0 0-1.631-.507 9.584 9.584 0 0 0-1.559-.146c-1.209 0-2.212.206-3.009.617-.774.41-1.161 1.015-1.161 1.813-.024.676.206 1.22.689 1.631.484.41 1.124.737 1.922.979.797.242 1.667.46 2.61.652.943.194 1.885.436 2.828.726.943.265 1.801.628 2.574 1.087a4.67 4.67 0 0 1 1.813 1.813c.435.75.616 1.728.544 2.937-.097 1.716-.931 3.057-2.502 4.024-1.571.943-3.577 1.414-6.018 1.414ZM119.36 28.774c-1.184 0-2.078-.29-2.683-.87-.58-.58-.87-1.523-.87-2.828v-8.592h-2.248v-2.61c.701 0 1.245-.073 1.632-.218.387-.145.664-.484.834-1.015.169-.532.253-1.39.253-2.575h2.973v3.807h3.408v2.61h-3.408v9.39h3.481v2.901h-3.372ZM98.484 28.774V13.946h3.154l.616 3.154h.073c.024-.073.109-.266.254-.58.169-.339.435-.713.797-1.124.387-.411.895-.762 1.523-1.052.653-.314 1.462-.471 2.429-.471 1.329 0 2.357.266 3.082.798a4.446 4.446 0 0 1 1.559 2.03 8.8 8.8 0 0 1 .58 2.502c.072.87.109 1.655.109 2.356v7.215h-3.626v-7.251c0-.798-.072-1.523-.218-2.175-.145-.677-.459-1.209-.942-1.596-.459-.41-1.148-.616-2.067-.616-.966 0-1.704.218-2.211.653-.508.435-.858 1.003-1.052 1.704a7.9 7.9 0 0 0-.29 2.175v7.106h-3.77ZM94.35 12.242c-.798.024-1.33-.157-1.596-.544-.241-.411-.362-.894-.362-1.45 0-.532.133-.991.399-1.378.266-.387.785-.58 1.559-.58.749 0 1.245.193 1.486.58.266.387.399.846.399 1.378 0 .556-.133 1.027-.399 1.414-.242.362-.737.555-1.486.58Zm-1.885 16.532v-14.9h3.697v14.9h-3.698ZM80.722 28.774V13.873h3.444l.254 4.133c.145-.628.423-1.257.834-1.885.435-.653 1.027-1.184 1.776-1.595.773-.435 1.764-.653 2.973-.653h.544v4.133h-.544c-2.079 0-3.529.338-4.35 1.015-.822.653-1.233 1.765-1.233 3.336v6.417h-3.698ZM72.848 29.136c-.919 0-1.692-.133-2.32-.398-.605-.29-1.1-.629-1.487-1.016a6.815 6.815 0 0 1-.834-1.051c-.17-.314-.266-.495-.29-.544h-.072v9.281h-3.807V13.873h3.227l.616 3.263h.072c.025-.072.11-.278.254-.616a6.15 6.15 0 0 1 .762-1.124c.362-.411.858-.762 1.486-1.052.628-.314 1.414-.471 2.356-.471 2.224 0 3.82.713 4.786 2.14.967 1.425 1.45 3.286 1.45 5.582 0 2.297-.495 4.133-1.486 5.511-.991 1.354-2.562 2.03-4.713 2.03Zm-1.124-3.117c1.015 0 1.788-.206 2.32-.617.556-.435.93-.99 1.124-1.668.218-.7.326-1.426.326-2.175 0-.75-.12-1.45-.362-2.103a3.189 3.189 0 0 0-1.16-1.631c-.556-.435-1.33-.653-2.32-.653-1.354 0-2.321.423-2.901 1.27-.58.82-.87 1.86-.87 3.117 0 1.305.302 2.38.906 3.227.604.822 1.583 1.232 2.937 1.232ZM53.064 29.173c-1.112 0-2.212-.133-3.3-.399a9.729 9.729 0 0 1-2.9-1.233 6.144 6.144 0 0 1-2.066-2.175c-.508-.918-.774-2.018-.798-3.3h3.734c0 .122.049.388.145.799.097.386.315.81.653 1.269.362.459.918.857 1.668 1.196.773.338 1.812.507 3.117.507 1.426 0 2.478-.265 3.155-.797.7-.532 1.051-1.1 1.051-1.704 0-.677-.242-1.209-.725-1.595-.46-.411-1.088-.738-1.885-.98a25.8 25.8 0 0 0-2.574-.724 68.03 68.03 0 0 1-2.792-.726 12.06 12.06 0 0 1-2.538-1.123 5.41 5.41 0 0 1-1.776-1.85c-.435-.749-.629-1.703-.58-2.864.12-1.716.942-3.057 2.465-4.024C48.64 8.483 50.658 8 53.172 8c1.45 0 2.792.266 4.025.798 1.257.507 2.26 1.28 3.009 2.32.773 1.015 1.16 2.32 1.16 3.915h-3.59c0-.749-.168-1.353-.507-1.812a3.167 3.167 0 0 0-1.305-1.088 4.757 4.757 0 0 0-1.631-.507 9.583 9.583 0 0 0-1.56-.146c-1.208 0-2.21.206-3.009.617-.773.41-1.16 1.015-1.16 1.813-.024.676.206 1.22.69 1.631.483.41 1.123.737 1.92.979a29.4 29.4 0 0 0 2.611.652c.943.194 1.885.436 2.828.726.943.265 1.8.628 2.574 1.087a4.667 4.667 0 0 1 1.813 1.813c.435.75.616 1.728.544 2.937-.097 1.716-.93 3.057-2.502 4.024-1.571.943-3.577 1.414-6.018 1.414Z" fill="#2D3A45"/></svg>