
<svg width="359" height="48" viewBox="0 0 359 48" fill="none" xmlns="http://www.w3.org/2000/svg">
<path d="M39.4969 22.2362L28.0528 22.7791C27.8572 22.0251 27.4366 21.3464 26.791 20.7432C26.1454 20.1249 25.2945 19.6348 24.2381 19.2728C23.2013 18.8958 21.959 18.7073 20.5114 18.7073C18.5747 18.7073 16.9412 19.024 15.611 19.6574C14.2807 20.2757 13.6156 21.1051 13.6156 22.1457C13.6156 22.9752 14.046 23.6764 14.9067 24.2495C15.7675 24.8226 17.2445 25.2825 19.3377 25.6294L27.4953 26.8962C31.8773 27.5899 35.1443 28.7059 37.2961 30.2441C39.448 31.7823 40.524 33.8031 40.524 36.3066C40.524 38.5838 39.6534 40.582 37.9124 42.3012C36.1909 44.0204 33.8238 45.3626 30.8111 46.3277C27.8181 47.2778 24.3652 47.7529 20.4527 47.7529C14.4861 47.7529 9.73241 46.7953 6.19157 44.88C2.6703 42.9497 0.606441 40.3256 0 37.0078L12.2951 36.5102C12.6668 37.9127 13.5667 38.9834 14.9948 39.7224C16.4228 40.4462 18.2519 40.8082 20.4821 40.8082C22.6731 40.8082 24.4337 40.484 25.764 39.8355C27.1138 39.1719 27.7985 38.3198 27.8181 37.2793C27.7985 36.4046 27.3192 35.6883 26.3802 35.1303C25.4412 34.5572 23.9936 34.1199 22.0373 33.8182L14.2318 32.6193C9.83022 31.9407 6.55348 30.7644 4.40159 29.0904C2.26926 27.4164 1.2031 25.2825 1.2031 22.6886C1.2031 20.4567 1.98561 18.5339 3.55062 16.9202C5.13519 15.3066 7.35555 14.0624 10.2117 13.1877C13.0874 12.3131 16.4522 11.8757 20.306 11.8757C25.9987 11.8757 30.4786 12.8032 33.7455 14.6581C37.0321 16.513 38.9492 19.0391 39.4969 22.2362Z" fill="black"/>
<path d="M60.8814 26.2403V46.3279H48.3808V-0.000244141H60.5292V17.7121H61.0574C62.0747 15.6611 63.7179 14.055 65.9872 12.8938C68.2565 11.7175 71.1028 11.1294 74.5263 11.1294C77.6563 11.1294 80.3853 11.6572 82.7132 12.7129C85.0608 13.7534 86.8801 15.254 88.1712 17.2145C89.4819 19.1599 90.1275 21.4899 90.1079 24.2044V46.3279H77.6074V25.9236C77.627 23.7821 76.9227 22.1157 75.4946 20.9243C74.0861 19.733 72.1103 19.1373 69.5671 19.1373C67.8652 19.1373 66.3589 19.4163 65.0482 19.9742C63.757 20.5322 62.7398 21.3466 61.9964 22.4173C61.2726 23.473 60.9009 24.7473 60.8814 26.2403Z" fill="black"/>
<path d="M150.422 46.3279V11.5818H162.541V17.6443H163.01C163.832 15.4877 165.211 13.859 167.148 12.7581C169.084 11.6421 171.315 11.0841 173.838 11.0841C174.464 11.0841 175.139 11.1143 175.863 11.1746C176.587 11.2349 177.223 11.3179 177.77 11.4234V19.9742C177.183 19.8385 176.372 19.7179 175.335 19.6123C174.298 19.5067 173.349 19.454 172.488 19.454C170.65 19.454 169.006 19.7631 167.559 20.3814C166.131 20.9847 164.996 21.8292 164.155 22.915C163.333 24.0008 162.922 25.2525 162.922 26.6701V46.3279H150.422Z" fill="black"/>
<path d="M210.682 12.3281V19.5669H183.539V12.3281H210.682ZM189.701 4.00354H202.202V36.397C202.202 37.2868 202.378 37.9805 202.73 38.4782C203.082 38.9608 203.571 39.3001 204.197 39.4962C204.843 39.6922 205.586 39.7902 206.427 39.7902C207.014 39.7902 207.601 39.7525 208.188 39.6771C208.775 39.5866 209.225 39.5188 209.538 39.4735L211.504 46.6444C210.878 46.7953 209.997 46.9687 208.863 47.1647C207.728 47.3759 206.349 47.5041 204.725 47.5493C201.713 47.6398 199.072 47.3306 196.802 46.6218C194.553 45.913 192.802 44.8121 191.55 43.3191C190.298 41.8261 189.682 39.941 189.701 37.6638V4.00354Z" fill="black"/>
<path d="M232.327 47.7304C229.451 47.7304 226.888 47.3458 224.638 46.5767C222.389 45.7925 220.609 44.6388 219.298 43.1157C218.007 41.5774 217.361 39.6622 217.361 37.3699C217.361 35.4395 217.821 33.8184 218.74 32.5063C219.66 31.1943 220.912 30.1387 222.496 29.3394C224.081 28.5401 225.881 27.9369 227.896 27.5297C229.93 27.1225 232.062 26.836 234.293 26.6701C236.914 26.4589 239.027 26.2629 240.631 26.0819C242.235 25.8859 243.399 25.5993 244.123 25.2223C244.847 24.8453 245.209 24.2873 245.209 23.5484V23.4126C245.209 21.98 244.622 20.8715 243.448 20.0873C242.294 19.3031 240.65 18.911 238.518 18.911C236.268 18.911 234.479 19.2956 233.148 20.0647C231.818 20.8187 230.938 21.7688 230.507 22.915L218.946 22.1911C219.533 20.0798 220.687 18.255 222.408 16.7168C224.13 15.1634 226.35 13.9721 229.069 13.1426C231.808 12.2981 234.977 11.8758 238.577 11.8758C241.081 11.8758 243.477 12.102 245.766 12.5545C248.075 13.0069 250.119 13.7081 251.899 14.6582C253.699 15.6083 255.117 16.8299 256.154 18.3229C257.191 19.8008 257.709 21.5728 257.709 23.6388V47.0744H245.854V42.256H245.502C244.778 43.3419 243.81 44.2995 242.597 45.1289C241.384 45.9433 239.927 46.5842 238.225 47.0517C236.523 47.5042 234.557 47.7304 232.327 47.7304ZM235.907 41.0797C237.745 41.0797 239.369 40.8008 240.778 40.2428C242.186 39.6697 243.291 38.9006 244.094 37.9354C244.896 36.9702 245.297 35.8769 245.297 34.6553V30.9681C244.905 31.1641 244.367 31.3451 243.683 31.511C243.018 31.6618 242.264 31.8051 241.423 31.9408C240.582 32.0614 239.741 32.1745 238.9 32.2801C238.058 32.3706 237.295 32.4535 236.611 32.5289C235.144 32.6948 233.862 32.9588 232.767 33.3207C231.671 33.6826 230.82 34.1728 230.214 34.7911C229.607 35.3943 229.304 36.1483 229.304 37.0532C229.304 38.3652 229.92 39.3681 231.153 40.0618C232.405 40.7404 233.989 41.0797 235.907 41.0797Z" fill="black"/>
<path d="M287.772 47.753C283.155 47.753 279.184 46.999 275.858 45.4909C272.552 43.9677 270.009 41.8564 268.229 39.1569C266.468 36.4575 265.588 33.3509 265.588 29.837C265.588 26.278 266.478 23.1563 268.258 20.4719C270.058 17.7724 272.611 15.6686 275.917 14.1606C279.223 12.6374 283.155 11.8758 287.713 11.8758C291.645 11.8758 295.088 12.4263 298.042 13.5272C300.996 14.6281 303.334 16.1739 305.056 18.1645C306.777 20.1552 307.726 22.4927 307.902 25.1771H296.106C295.773 23.4428 294.893 22.0478 293.465 20.9922C292.056 19.9214 290.208 19.3861 287.919 19.3861C285.982 19.3861 284.29 19.7932 282.842 20.6076C281.414 21.4069 280.299 22.5756 279.497 24.1139C278.695 25.6521 278.294 27.5146 278.294 29.7013C278.294 31.9182 278.685 33.8033 279.468 35.3566C280.27 36.9099 281.395 38.0937 282.842 38.9081C284.29 39.7225 285.982 40.1297 287.919 40.1297C289.347 40.1297 290.628 39.9035 291.763 39.451C292.917 38.9986 293.866 38.3426 294.609 37.483C295.372 36.6083 295.871 35.5602 296.106 34.3386H307.902C307.706 36.9929 306.767 39.3304 305.085 41.3512C303.422 43.357 301.123 44.9254 298.189 46.0564C295.255 47.1875 291.782 47.753 287.772 47.753Z" fill="black"/>
<path d="M327.232 37.0758L327.262 25.5164H329.081L343.518 12.3283H357.867L338.471 29.7918H335.507L327.232 37.0758ZM315.905 47.0744V0.746216H328.406V47.0744H315.905ZM344.076 47.0744L330.812 31.9408L339.146 25.1318L358.718 47.0744H344.076Z" fill="black"/>
<path fill-rule="evenodd" clip-rule="evenodd" d="M104.195 21.3723C104.327 21.8284 104.508 22.2379 104.727 22.6079C104.978 23.0342 105.278 23.4081 105.607 23.7407C106.463 24.6062 107.516 25.1919 108.416 25.6927C108.884 25.953 109.31 26.1904 109.646 26.4321L109.656 26.4395C110.122 26.7767 110.478 27.1946 110.749 27.6724C110.936 28.0043 111.083 28.3651 111.197 28.7478C111.218 28.8209 111.239 28.8949 111.258 28.9695C111.349 29.3192 111.414 29.6853 111.46 30.0627C111.471 30.155 111.481 30.248 111.49 30.3416C111.523 30.6878 111.541 31.0423 111.55 31.4013C111.552 31.501 111.553 31.6011 111.554 31.7014C111.557 32.1475 111.546 32.5989 111.529 33.0488C111.517 33.392 111.501 33.7342 111.485 34.0723C111.4 35.8591 111.321 37.5314 111.781 38.6281C111.874 38.8489 111.989 39.0464 112.129 39.2168C112.562 39.7398 113.036 40.0469 113.505 40.1747C113.736 40.2377 113.966 40.2571 114.189 40.2371C114.891 40.1742 115.522 39.7207 115.903 39.0136C116.276 38.3202 116.408 37.3828 116.129 36.3306C115.884 35.4061 115.709 34.4064 115.62 33.4367C115.578 32.9773 115.556 32.5246 115.555 32.0898C115.554 31.711 115.569 31.3459 115.602 31.0017C115.61 30.9169 115.619 30.8333 115.629 30.7512C115.68 30.3435 115.757 29.9698 115.863 29.6437C115.999 29.2259 116.182 28.8863 116.417 28.653C116.516 28.5541 116.625 28.4743 116.743 28.4158C117.371 28.1065 117.782 28.2315 118.067 28.6181C118.239 28.8499 118.365 29.176 118.466 29.5589C118.567 29.9452 118.642 30.3893 118.712 30.8529L118.718 30.8983C118.74 31.0451 118.761 31.1936 118.783 31.3428C118.823 31.6276 118.864 31.9145 118.91 32.1953C118.988 32.6743 119.079 33.1354 119.206 33.537C119.428 34.2384 119.758 34.7581 120.312 34.8743C121.003 35.0191 122.492 34.795 123.286 33.3895C123.496 33.0176 123.658 32.563 123.743 32.0107C123.787 31.7299 123.81 31.4239 123.81 31.0906C123.81 30.9524 123.807 30.8094 123.799 30.6616C123.783 30.3723 123.75 30.0645 123.7 29.7371C123.651 29.4184 123.584 29.0809 123.498 28.7241L123.488 28.6823C123.476 28.6321 123.464 28.5814 123.451 28.5304C123.437 28.4764 123.425 28.4233 123.415 28.3711C123.341 27.9962 123.358 27.668 123.45 27.379C123.626 26.8326 124.072 26.426 124.693 26.1068C125.758 25.56 127.336 25.2705 128.943 24.9757C130.453 24.6988 131.988 24.4172 133.146 23.9134C133.724 23.6617 134.208 23.3545 134.548 22.9646C134.846 22.6231 135.033 22.2181 135.076 21.7314C135.083 21.6464 135.086 21.5589 135.085 21.4688C135.044 19.1234 133.981 16.7245 130.972 15.0709C127.823 13.3405 122.544 12.4261 114.076 13.2431C114.076 13.2431 111.16 13.6619 108.46 14.7884C106.164 15.746 104.023 17.2151 103.961 19.3729C103.939 20.1262 104.026 20.7876 104.195 21.3723ZM97.2771 24.6382C97.5474 24.9653 97.8712 25.2826 98.2417 25.5905C98.5861 25.8769 98.9708 26.1553 99.3907 26.426C99.6789 26.612 99.9837 26.7943 100.303 26.9733C100.77 27.2345 101.268 27.4852 101.795 27.7246C102.501 28.0453 103.26 28.3456 104.066 28.6235C104.984 28.9405 105.964 29.2283 106.997 29.4839L107.069 29.5017C107.868 29.6978 108.697 29.8746 109.555 30.0309C109.51 29.7307 109.451 29.4398 109.365 29.1684C109.351 29.1266 109.337 29.0852 109.323 29.0443C109.167 28.6124 108.93 28.2366 108.547 27.9613L108.496 27.9256C108.174 27.7005 107.774 27.4787 107.337 27.2367C107.107 27.1091 106.867 26.976 106.623 26.8337C106.353 26.6765 106.077 26.5081 105.806 26.324C105.024 25.7952 104.268 25.1665 103.642 24.3782C103.364 24.0277 103.112 23.6458 102.895 23.227C102.697 22.8448 102.529 22.4319 102.397 21.9843C102.168 21.2073 102.049 20.3258 102.078 19.3189C102.11 18.2108 102.491 17.207 103.133 16.3217C102.095 16.7208 101.148 17.1593 100.303 17.6321C97.9045 18.9756 96.3386 20.5106 96.3386 22.3027C96.3386 23.1344 96.6759 23.9107 97.2771 24.6382ZM96.3386 30.5493L96.3391 30.6036C96.3471 31.0551 96.4546 31.4901 96.6497 31.9099C96.8711 32.3863 97.2053 32.8429 97.6353 33.2814C97.94 33.5922 98.2929 33.894 98.6876 34.1871C99.0622 34.4653 99.4745 34.7357 99.9193 34.9989C100.045 35.0732 100.173 35.1468 100.303 35.2199C102.71 36.5675 105.957 37.6364 109.726 38.3083C109.705 38.2098 109.687 38.1093 109.67 38.0071C109.5 36.9758 109.524 35.7076 109.585 34.3631C109.593 34.1996 109.601 34.0348 109.609 33.869C109.627 33.5041 109.645 33.1347 109.658 32.7653C108.768 32.6135 107.904 32.441 107.069 32.2495C106.181 32.0456 105.325 31.8201 104.508 31.5748C103.781 31.3569 103.083 31.1234 102.418 30.8757C102.115 30.7625 101.818 30.6465 101.528 30.5276C100.841 30.2456 100.193 29.9474 99.5888 29.635C99.385 29.5297 99.1861 29.4227 98.9923 29.3141C98.6351 29.1141 98.2946 28.9079 97.9712 28.6962C97.7303 28.5384 97.4989 28.3775 97.2771 28.2138C97.0447 28.4951 96.8517 28.7836 96.7024 29.0798C96.4655 29.5498 96.3386 30.0391 96.3386 30.5493ZM115.791 41.6931C114.545 42.3641 112.993 42.3939 111.581 41.3022C106.481 40.63 102.089 39.2951 98.9923 37.5607C98.509 37.2901 98.0563 37.0082 97.6353 36.7165C96.8113 37.5568 96.3386 38.4639 96.3386 39.4486C96.3386 41.2406 97.9045 42.7756 100.303 44.1192C104.539 46.4915 111.382 47.9999 119.088 47.9999C126.793 47.9999 133.636 46.4915 137.872 44.1192C140.271 42.7756 141.837 41.2406 141.837 39.4486C141.837 38.4639 141.364 37.5568 140.54 36.7165C140.119 37.0082 139.667 37.2901 139.183 37.5607C134.648 40.1005 127.337 41.7836 119.088 41.7836C117.97 41.7836 116.87 41.7527 115.791 41.6931ZM138.256 34.9989C138.701 34.7357 139.113 34.4653 139.487 34.1871C139.882 33.894 140.235 33.5922 140.54 33.2814C140.97 32.8429 141.304 32.3863 141.526 31.9099C141.721 31.4901 141.828 31.0551 141.837 30.6036V30.5493C141.837 30.0391 141.71 29.5498 141.473 29.0798C141.324 28.7836 141.131 28.4951 140.898 28.2138C140.676 28.3775 140.445 28.5384 140.204 28.6962C139.881 28.9079 139.54 29.1141 139.183 29.3141C138.989 29.4227 138.791 29.5297 138.587 29.635C137.982 29.9474 137.335 30.2456 136.647 30.5276C136.358 30.6465 136.06 30.7625 135.757 30.8757C135.092 31.1234 134.395 31.3569 133.667 31.5748C132.85 31.8201 131.994 32.0456 131.106 32.2495C129.326 32.658 127.412 32.9797 125.399 33.1995C125.283 33.5843 125.138 33.9245 124.976 34.2245C123.667 36.6546 121.094 36.9624 119.926 36.7177C119.035 36.5309 118.325 35.9859 117.829 35.0972C117.796 35.0381 117.764 34.9768 117.733 34.9134C117.797 35.231 117.869 35.5441 117.95 35.848C118.27 37.0576 118.21 38.1606 117.908 39.0889C118.299 39.0968 118.692 39.1007 119.088 39.1007C126.793 39.1007 133.636 37.5922 137.872 35.2199C138.003 35.1468 138.131 35.0732 138.256 34.9989ZM125.454 28.847C125.53 29.2242 125.585 29.5832 125.624 29.9247C125.645 30.1127 125.661 30.2952 125.672 30.4727C126.341 30.393 126.998 30.3014 127.642 30.1984C128.849 30.005 130.007 29.7716 131.106 29.5017L131.179 29.4839C132.212 29.2283 133.191 28.9405 134.11 28.6235C134.916 28.3456 135.674 28.0453 136.381 27.7246C136.908 27.4852 137.406 27.2345 137.872 26.9733C138.192 26.7943 138.496 26.612 138.785 26.426C139.204 26.1553 139.59 25.8769 139.934 25.5905C140.304 25.2826 140.628 24.9653 140.898 24.6382C141.499 23.9107 141.837 23.1344 141.837 22.3027C141.837 20.5106 140.271 18.9756 137.872 17.6321C137.112 17.2064 136.268 16.8086 135.35 16.4423C136.493 18.0319 136.94 19.7881 136.968 21.4363C136.974 21.7844 136.944 22.1125 136.88 22.4214C136.786 22.8767 136.619 23.2905 136.384 23.6661C136.14 24.0591 135.821 24.4103 135.437 24.7237C135.232 24.8915 135.007 25.0484 134.765 25.1951C133.624 25.8863 131.961 26.3057 130.234 26.6475C129.883 26.7168 129.531 26.7829 129.179 26.8474L129.059 26.8695C127.991 27.0653 126.947 27.2568 126.102 27.5533L126.071 27.5644C125.872 27.635 125.687 27.7111 125.523 27.7984C125.438 27.8438 125.321 27.9298 125.26 27.9768C125.264 28.0058 125.269 28.0401 125.276 28.0656C125.318 28.2305 125.356 28.3923 125.392 28.551C125.414 28.6508 125.435 28.7495 125.454 28.847Z" fill="black"/>
</svg>